HIERARCHY
ROOT Hips
{
  OFFSET 0 0 0
  CHANNELS 6 Xposition Yposition Zposition Zrotation Yrotation Xrotation
  JOINT LeftThigh
  {
    OFFSET 8.409438 0 -5.917753
    CHANNELS 3 Zrotation Yrotation Xrotation
    JOINT LeftLeg
    {
      OFFSET 0 0 -42.358652
      CHANNELS 3 Zrotation Yrotation Xrotation
      JOINT LeftFoot
      {
        OFFSET 0 0 -39.357303
        CHANNELS 3 Zrotation Yrotation Xrotation
      }
    }
  }
  JOINT RightThigh
  {
    OFFSET -8.409438 0 -5.917753
    CHANNELS 3 Zrotation Yrotation Xrotation
    JOINT RightLeg
    {
      OFFSET 0 0 -42.358652
      CHANNELS 3 Zrotation Yrotation Xrotation
      JOINT RightFoot
      {
        OFFSET 0 0 -39.357303
        CHANNELS 3 Zrotation Yrotation Xrotation
      }
    }
  }
  JOINT SpineLow
  {
    OFFSET 0 0 4.719101
    CHANNELS 3 Zrotation Yrotation Xrotation
    JOINT SpineMid
    {
      OFFSET 0 0 12.899191
      CHANNELS 3 Zrotation Yrotation Xrotation
      JOINT Chest
      {
        OFFSET 0 0 12.899191
        CHANNELS 3 Zrotation Yrotation Xrotation
        JOINT LeftShoulder
        {
          OFFSET 7.550562 1.41573 9.438202
          CHANNELS 3 Zrotation Yrotation Xrotation
          JOINT LeftArm
          {
            OFFSET 9.155056 0 4.247191
            CHANNELS 3 Zrotation Yrotation Xrotation
            JOINT LeftForearm
            {
              OFFSET 0 0 25.771955
              CHANNELS 3 Zrotation Yrotation Xrotation
              JOINT LeftHand
              {
                OFFSET 0 0 25.197169
                CHANNELS 3 Zrotation Yrotation Xrotation
              }
            }
          }
        }
        JOINT RightShoulder
        {
          OFFSET -7.550562 1.41573 9.438202
          CHANNELS 3 Zrotation Yrotation Xrotation
          JOINT RightArm
          {
            OFFSET -9.155056 0 4.247191
            CHANNELS 3 Zrotation Yrotation Xrotation
            JOINT RightForearm
            {
              OFFSET 0 0 -25.771955
              CHANNELS 3 Zrotation Yrotation Xrotation
              JOINT RightHand
              {
                OFFSET 0 0 -25.197169
                CHANNELS 3 Zrotation Yrotation Xrotation
              }
            }
          }
        }
        JOINT Neck
        {
          OFFSET 0 0 15.101124
          CHANNELS 3 Zrotation Yrotation Xrotation
          JOINT Head
          {
            OFFSET 0 0 11.325843
            CHANNELS 3 Zrotation Yrotation Xrotation
            End Site
            {
              OFFSET 0 0 14.157303
            }
          }
        }
      }
    }
  }
}
MOTION
Frames: 11
Frame Time: 0.0
0.0  89.887642  0.0  0.48055  -2.568003  -91.454824  7.575644  -14.851587  -13.44057  -8.722314  10.111119  37.759448  5.72236  2.245564  4.036146  -22.114222  11.449108  -25.994323  5.799126  0.564982  41.896968  11.038533  2.579955  1.594375  0.07952  -1.314559  0.569539  0.186534  -3.594856  1.553862  0.186534  -3.594855  1.553862  -11.911224  29.137283  6.66576  114.684782  38.775193  169.941932  -4.292008  -20.348907  45.54993  79.124603  -5.734071  14.357587  -14.683811  11.827099  13.177823  58.466008  19.905093  19.334468  -3.561817  6.63236  -50.405713  81.313964  7.530937  -3.965599  1.673812  6.162924  2.867933  1.225157  4.630198  2.131952  
0.0  89.887642  0.0  0.847759  1.729597  -91.455691  5.176389  -14.07699  -13.897588  -9.768882  9.923427  37.047281  5.692451  2.095863  4.321092  -25.536414  12.280174  -24.303984  5.858165  0.790099  39.911453  11.18557  2.543872  1.388216  -0.463601  -1.36081  0.393856  -1.290601  -3.711808  1.103698  -1.290601  -3.711808  1.103698  -13.244299  30.427631  6.637204  115.00709  38.952495  169.371526  -3.292891  -20.965423  44.749934  80.072396  -4.662148  14.530496  -15.038574  12.915957  14.664304  56.921061  19.397012  19.457246  -5.092176  4.851725  -54.225677  80.620515  7.104607  -3.358933  1.196661  6.441292  3.526206  0.859277  4.838075  2.629213  
0.0  89.887642  0.0  0.604436  6.565829  -91.4849  3.82558  -13.819873  -14.392757  -11.74053  9.650744  35.839809  5.483426  1.867491  4.512826  -27.827431  12.775334  -21.542365  4.999493  1.331359  37.415764  11.335779  2.547158  1.136361  -1.113205  -1.531583  0.178133  -3.057865  -4.177169  0.558041  -3.057865  -4.177169  0.558041  -13.816231  31.888026  7.259057  115.446616  39.612285  169.641149  -1.738099  -21.618229  43.572952  80.937026  -3.393142  14.846585  -14.766598  13.989359  16.139253  55.018484  19.129102  19.931272  -6.511605  2.597101  -58.479118  80.520289  6.966704  -3.265482  0.798792  6.869115  4.511781  0.547481  5.158065  3.37076  
0.0  89.887642  0.0  -0.115227  11.601666  -92.053585  3.205102  -14.017494  -14.18051  -14.333167  9.189986  33.979791  5.195025  1.623639  4.557732  -28.653222  13.246717  -17.740105  3.549759  1.886126  34.65811  11.415223  2.467137  0.884331  -1.739305  -1.79061  -0.042757  -4.759071  -4.894614  0.012148  -4.759071  -4.894614  0.012148  -13.664102  32.962579  8.281536  116.023652  39.611346  171.291686  0.400903  -22.596706  41.902004  81.803233  -1.980488  15.189789  -14.582721  15.104562  17.629351  53.003391  19.043097  20.753577  -7.931141  -0.028365  -62.867748  81.623158  7.002736  -3.004309  0.178149  7.52717  5.893984  0.060456  5.647712  4.411899  
0.0  89.887642  0.0  -0.996448  16.900272  -92.780509  2.798353  -14.488497  -13.680217  -17.113104  8.698176  31.609439  4.886391  1.350396  4.457554  -28.511027  13.364988  -13.415639  1.84311  2.456525  31.596427  11.267769  2.476889  0.705597  -2.258628  -1.994102  -0.218639  -6.168587  -5.465609  -0.411413  -6.168586  -5.465609  -0.411413  -13.719509  33.338213  8.725909  116.125469  38.632763  173.024898  2.046929  -24.088258  40.40551  83.13151  -0.542808  15.492812  -14.796219  16.001066  18.840659  50.592723  18.479791  21.286272  -9.14865  -0.618349  -67.438626  81.882564  6.998394  -2.417924  -0.95475  8.016652  7.059894  -0.80817  6.002447  5.298851  
0.0  89.887642  0.0  -1.866843  22.53851  -93.136479  2.040576  -15.04035  -13.337855  -19.445338  8.106734  28.878244  4.623321  1.146969  4.194288  -27.658282  12.587988  -9.239499  -0.086142  3.313838  28.352221  10.381092  2.69571  0.553563  -2.625938  -2.239571  -0.479054  -7.152082  -6.16519  -1.066952  -7.152082  -6.16519  -1.066952  -13.910122  33.937313  8.723285  115.346108  36.808646  174.283796  2.066498  -25.988018  40.027717  85.055069  1.077617  15.693221  -15.401108  17.952685  20.68161  47.524548  17.622445  20.773304  -10.71602  1.906035  -72.333662  80.062649  6.748163  -2.206009  -2.75914  8.626034  8.059348  -2.180404  6.434706  6.072373  
0.0  89.887642  0.0  -2.742517  28.311284  -93.280656  0.908609  -15.692184  -13.261013  -20.902493  7.469039  26.237249  4.044053  0.971494  3.738167  -26.317491  10.983092  -5.312402  -2.385017  4.552206  24.943881  8.716567  3.284071  0.480832  -2.876852  -2.449817  -0.607858  -7.826428  -6.757434  -1.371222  -7.826428  -6.757434  -1.371222  -14.730428  33.352594  7.788823  115.360407  35.020229  176.557255  0.481706  -27.817847  41.51531  86.889006  2.981959  15.158067  -16.508508  19.805037  22.137108  43.747567  16.91059  19.100216  -12.541461  5.826637  -77.325403  77.391421  6.994391  -3.268545  -5.115261  8.831014  8.281863  -3.950184  6.556083  6.273969  
0.0  89.887642  0.0  -3.623234  33.897478  -93.312926  -0.609185  -16.345019  -13.350688  -21.22014  6.71543  23.896914  2.997241  0.681881  3.371213  -24.05599  8.476581  -1.295786  -5.648063  6.260451  20.990398  6.923506  3.678422  0.344302  -3.0107  -2.571312  -0.540393  -8.200319  -7.082942  -1.15776  -8.200319  -7.082941  -1.15776  -16.066597  31.296863  5.157486  115.33053  32.929679  178.577077  -3.424449  -28.652053  45.586036  88.544439  5.189479  13.854365  -17.919928  20.949306  22.245392  39.731025  15.860169  16.804795  -12.36698  8.179153  -82.304065  76.041167  7.993921  -2.759282  -7.847882  8.28048  7.685518  -5.981494  6.114217  5.862174  
0.0  89.887642  0.0  -4.701028  38.898223  -94.113255  -2.457302  -16.971452  -12.86523  -20.964396  5.982632  21.913506  2.034393  0.415147  3.373745  -20.450231  5.469183  3.315127  -10.767443  7.804217  16.746137  5.791163  3.647254  -0.037604  -2.991446  -2.633183  -0.335253  -8.17009  -7.226279  -0.590468  -8.170088  -7.226279  -0.590468  -16.902905  28.790155  3.091597  114.772431  31.431447  -179.734061  -9.153512  -28.091601  51.667573  89.098512  7.328904  12.529732  -18.264117  21.698644  23.234303  35.362641  15.366054  13.417314  -11.142278  8.549216  -86.918711  76.114864  9.582358  -2.056151  -10.822591  7.300909  6.980692  -8.190938  5.355069  5.360306  
0.0  89.887642  0.0  -5.729419  43.238111  -95.320565  -4.424323  -17.212255  -12.064436  -20.586506  5.439987  20.575041  1.568562  0.073878  3.450626  -16.139245  2.485652  7.276072  -17.679774  8.556634  12.718967  4.766836  3.599807  -0.152871  -2.812762  -2.685099  -0.225013  -7.692597  -7.354176  -0.302144  -7.692597  -7.354176  -0.302144  -16.778819  27.113797  2.755976  114.177893  30.837027  -178.137591  -14.91832  -26.007472  58.473582  88.169249  8.194387  11.868343  -17.874232  22.872433  23.747963  32.713725  15.457761  10.272705  -9.972958  8.332486  -90.633165  76.920926  11.809332  -1.368215  -13.087434  6.477811  7.213719  -9.883413  4.707375  5.546774  
0.0  89.887642  0.0  -5.364212  48.492628  -95.232806  -7.294567  -16.086141  -11.82766  -20.341011  5.145891  19.843193  1.280523  -0.337887  3.330238  -15.123631  0.988427  9.365305  -23.857557  8.657769  9.335185  3.163676  3.527598  0.097163  -2.693498  -2.526263  -0.292387  -7.356531  -6.927957  -0.517824  -7.356532  -6.927957  -0.517824  -15.46334  25.895872  3.657147  113.924867  31.272847  -176.900845  -18.930604  -22.215471  65.635726  86.384565  7.94559  12.013455  -18.271675  24.195295  22.289067  33.815692  16.727008  7.960841  -9.370403  6.335259  -94.855475  80.293305  13.559961  0.842856  -16.230568  5.900372  7.073392  -12.232508  4.241767  5.462135  
